<svg xmlns="http://www.w3.org/2000/svg" viewBox="0 0 800 800" fill="none">
  <defs>
    <linearGradient id="violet" x1="126" y1="83" x2="679" y2="720" gradientUnits="userSpaceOnUse"><stop stop-color="#F2D5FF"/><stop offset=".23" stop-color="#9A6CF1"/><stop offset=".48" stop-color="#4E2E91"/><stop offset=".72" stop-color="#B18BFA"/><stop offset="1" stop-color="#EFD6FF"/></linearGradient>
    <linearGradient id="silver" x1="140" y1="665" x2="661" y2="142" gradientUnits="userSpaceOnUse"><stop stop-color="#fff"/><stop offset=".17" stop-color="#877098"/><stop offset=".38" stop-color="#EDE7F3"/><stop offset=".56" stop-color="#6F4F9D"/><stop offset=".77" stop-color="#fff"/><stop offset="1" stop-color="#8F72AD"/></linearGradient>
    <filter id="blur"><feGaussianBlur stdDeviation="14"/></filter>
  </defs>
  <ellipse cx="420" cy="415" rx="232" ry="210" fill="#A47BEE" opacity=".28" filter="url(#blur)"/>
  <path d="M153 488C88 277 257 113 457 165c152 40 247 171 185 309-54 120-194 171-315 115-74-34-127-56-174-101Z" fill="url(#violet)"/>
  <path d="M110 436C214 538 322 575 437 521c111-52 146-169 270-150 38 6 64 24 85 47-52-97-154-145-249-105-115 49-128 151-227 164-70 9-136-31-206-41Z" fill="url(#silver)" opacity=".95"/>
  <path d="M140 298c113-32 179 24 246 80 68 57 139 101 262 35-41-76-104-118-178-108-107 14-141 112-240 79-39-13-66-46-90-86Z" fill="url(#silver)" opacity=".94"/>
  <path d="M191 593c45-111 110-144 203-173 100-31 141-92 157-197 30 88 15 176-52 237-74 68-182 67-308 133Z" fill="url(#violet)" opacity=".75"/>
  <path d="M175 439c105 22 164-10 228-57 59-43 126-87 201-55" stroke="#fff" stroke-width="19" stroke-linecap="round" opacity=".47"/>
  <path d="M249 216c63 32 97 89 134 129 41 44 87 75 168 54" stroke="#fff" stroke-width="13" stroke-linecap="round" opacity=".42"/>
  <circle cx="383" cy="374" r="23" fill="#fff" opacity=".8"/>
</svg>