<svg width="512" height="512" viewBox="0 0 512 512" fill="none" xmlns="http://www.w3.org/2000/svg">
<g clip-path="url(#clip0_23_2)">
<rect width="512" height="512" rx="256" fill="white"/>
<path d="M373.5 279C371.167 299.667 364.5 317.5 353.5 332.5C342.833 347.167 329.333 358.5 313 366.5C296.667 374.167 279 378 260 378C238.667 378 218.667 372.833 200 362.5C181.333 352.167 166.167 337.333 154.5 318C143.167 298.333 137.5 275.167 137.5 248.5C137.5 221.833 143.167 198.833 154.5 179.5C166.167 159.833 181.333 144.667 200 134C218.667 123.333 238.667 118 260 118C279 118 296.5 122 312.5 130C328.833 138 342.333 149.333 353 164C364 178.667 370.833 196.167 373.5 216.5H337C331.333 197.5 321.5 182.667 307.5 172C293.5 161 277.667 155.5 260 155.5C245.667 155.5 232.167 159.167 219.5 166.5C206.833 173.833 196.667 184.5 189 198.5C181.333 212.167 177.5 228.833 177.5 248.5C177.5 267.833 181.333 284.5 189 298.5C196.667 312.167 206.667 322.667 219 330C231.667 337 245.333 340.5 260 340.5C280.333 340.5 296.833 335.167 309.5 324.5C322.5 313.5 331.833 298.333 337.5 279H373.5Z" fill="#CCFF00"/>
</g>
<defs>
<clipPath id="clip0_23_2">
<rect width="512" height="512" rx="256" fill="white"/>
</clipPath>
</defs>
</svg>
